Coordinates
version=1
nRows=7
nColumns=63
inDegrees=yes

Units are S.I. units (second, meters, Newtons, ...)
If the header above contains a line with 'inDegrees', this indicates whether rotational values are in degrees (yes) or radians (no).

endheader
time	pelvis_tilt	pelvis_list	pelvis_rotation	pelvis_tx	pelvis_ty	pelvis_tz	hip_flexion_r	hip_adduction_r	hip_rotation_r	knee_angle_r	knee_angle_r_beta	ankle_angle_r	subtalar_angle_r	mtp_angle_r	hip_flexion_l	hip_adduction_l	hip_rotation_l	knee_angle_l	knee_angle_l_beta	ankle_angle_l	subtalar_angle_l	mtp_angle_l	L5_S1_Flex_Ext	L5_S1_Lat_Bending	L5_S1_axial_rotation	L4_L5_Flex_Ext	L4_L5_Lat_Bending	L4_L5_axial_rotation	L3_L4_Flex_Ext	L3_L4_Lat_Bending	L3_L4_axial_rotation	L2_L3_Flex_Ext	L2_L3_Lat_Bending	L2_L3_axial_rotation	L1_L2_Flex_Ext	L1_L2_Lat_Bending	L1_L2_axial_rotation	L1_T12_Flex_Ext	L1_T12_Lat_Bending	L1_T12_axial_rotation	Abs_r3	Abs_r2	Abs_r1	Abs_t1	Abs_t2	neck_flexion	neck_bending	neck_rotation	arm_flex_r	arm_add_r	arm_rot_r	elbow_flex_r	pro_sup_r	wrist_flex_r	wrist_dev_r	arm_flex_l	arm_add_l	arm_rot_l	elbow_flex_l	pro_sup_l	wrist_flex_l	wrist_dev_l
      0.03333333	     -1.86321966	      5.94454396	    -29.46336325	     -1.72736818	      0.84875227	      0.31374036	    -10.43095667	     -9.26789211	     17.72529541	      9.61512312	      0.16781556	     13.16431573	    -11.19986687	      0.00000000	     20.44550689	     -7.68965530	    -21.04954619	     11.90310705	      0.20774841	      6.88676129	    -11.84510396	      0.00000000	     -0.00453064	     -0.84715082	      2.11813249	     -0.00841385	     -1.12671059	      2.25051577	     -0.00744339	     -2.05976251	      2.25051577	     -0.00517807	     -2.05976251	      1.85336593	     -0.00420715	     -1.72750995	      1.72098265	     -0.00258881	     -1.31223662	      1.58859937	     -0.03236191	     -9.58313951	     11.78041747	      0.00000000	      0.00000000	     -0.00000000	      0.00000000	      0.00000000	     -0.54342059	      0.59918222	      1.26951679	     26.42548759	     26.79043693	      0.00000000	      6.12011203	    -15.08497132	      6.75021626	    -47.56645089	     47.47003410	     20.40863362	      0.00000000	      6.12011203
      0.06666667	     -1.86708076	      5.94510345	    -29.41758082	     -1.72731220	      0.84875495	      0.31368763	    -10.45659500	     -9.28128849	     17.47974658	      9.56961819	      0.16702135	     13.19952966	    -10.92491372	      0.00000000	     20.45277616	     -7.66785751	    -20.92747005	     11.89484503	      0.20760421	      6.87491610	    -11.91644957	      0.00000000	     -0.00464944	     -0.84622096	      2.11420205	     -0.00863447	     -1.12547388	      2.24633968	     -0.00763856	     -2.05750165	      2.24633968	     -0.00531384	     -2.05750165	      1.84992680	     -0.00431747	     -1.72561379	      1.71778917	     -0.00265669	     -1.31079627	      1.58565154	     -0.03321046	     -9.57262080	     11.75855756	      0.00000000	      0.00000000	     -0.00000000	      0.00000000	      0.00000000	     -0.58368777	      0.73215094	      0.42950009	     26.44167498	     27.04471886	      0.00000000	      5.76682142	    -15.06516659	      6.73393405	    -47.66326873	     47.34639756	     22.17757882	      0.00000000	      5.76682142
      0.10000000	     -1.88302406	      5.92697905	    -29.37784849	     -1.72727112	      0.84876817	      0.31361401	    -10.48133467	     -9.30312526	     16.91564435	      9.49667079	      0.16574817	     13.33169144	    -10.16229684	      0.00000000	     20.48080459	     -7.68342601	    -20.96270992	     11.92198205	      0.20807784	      6.88688790	    -11.84424592	      0.00000000	     -0.00324507	     -0.84293139	      2.10768469	     -0.00602643	     -1.12109875	      2.23941498	     -0.00533133	     -2.04950339	      2.23941498	     -0.00370880	     -2.04950339	      1.84422410	     -0.00301338	     -1.71890570	      1.71249381	     -0.00185424	     -1.30570073	      1.58076352	     -0.02317924	     -9.53540851	     11.72230994	      0.00000000	      0.00000000	     -0.00000000	      0.00000000	      0.00000000	     -0.58099866	      0.72777514	      0.28823456	     26.40740079	     27.75802127	      0.00000000	      5.70651423	    -15.05967050	      6.75311700	    -47.75347729	     47.31008364	     23.13513723	      0.00000000	      5.70651423
      0.13333333	     -1.87030356	      5.93890189	    -29.39562240	     -1.72728398	      0.84876444	      0.31364641	    -10.47052108	     -9.31462303	     16.99501246	      9.53201633	      0.16636507	     13.37450156	    -10.21406741	      0.00000000	     20.45825746	     -7.66662215	    -20.94262698	     11.89573026	      0.20761966	      6.88758999	    -11.86471384	      0.00000000	     -0.00382400	     -0.84499172	      2.10958650	     -0.00710156	     -1.12383899	      2.24143566	     -0.00628246	     -2.05451287	      2.24143566	     -0.00437045	     -2.05451287	      1.84588819	     -0.00355097	     -1.72310711	      1.71403903	     -0.00218504	     -1.30889217	      1.58218988	     -0.02731448	     -9.55871533	     11.73288726	      0.00000000	      0.00000000	     -0.00000000	      0.00000000	      0.00000000	     -0.57703015	      0.73217337	      0.28538829	     26.40167231	     27.79475856	      0.00000000	      5.69256887	    -15.06198238	      6.73969926	    -47.77343131	     47.30909572	     23.20052203	      0.00000000	      5.69256887
      0.16666667	     -1.86772218	      5.93138249	    -29.40180914	     -1.72727812	      0.84876741	      0.31367748	    -10.48346823	     -9.32648702	     16.82657463	      9.50736161	      0.16593476	     13.43587185	     -9.94291220	      0.00000000	     20.45165435	     -7.69035031	    -21.09760750	     11.91154618	      0.20789570	      6.89596028	    -11.70820933	      0.00000000	     -0.00476403	     -0.84495908	      2.10852133	     -0.00884728	     -1.12379558	      2.24030392	     -0.00782682	     -2.05443351	      2.24030392	     -0.00544481	     -2.05443351	      1.84495617	     -0.00442388	     -1.72304056	      1.71317358	     -0.00272217	     -1.30884162	      1.58139100	     -0.03402898	     -9.55834614	     11.72696310	      0.00000000	      0.00000000	     -0.00000000	      0.00000000	      0.00000000	     -0.58857208	      0.74097959	      0.23740620	     26.43847803	     28.05557946	      0.00000000	      5.67264123	    -15.09164223	      6.77518696	    -47.80193185	     47.41908047	     23.49111286	      0.00000000	      5.67264123
      0.20000000	     -1.86324845	      5.94732616	    -29.40622589	     -1.72731128	      0.84875817	      0.31368462	    -10.46518167	     -9.26686437	     17.60908382	      9.57275650	      0.16707612	     13.12879092	    -11.17100662	      0.00000000	     20.44958254	     -7.66481880	    -21.00951019	     11.88402613	      0.20741538	      6.88444695	    -11.78714266	      0.00000000	     -0.00407704	     -0.84709971	      2.11222324	     -0.00757146	     -1.12664262	      2.24423719	     -0.00669816	     -2.05963824	      2.24423719	     -0.00465964	     -2.05963824	      1.84819533	     -0.00378593	     -1.72740573	      1.71618138	     -0.00232962	     -1.31215745	      1.58416743	     -0.02912186	     -9.58256136	     11.74755198	      0.00000000	      0.00000000	     -0.00000000	      0.00000000	      0.00000000	     -0.57807084	      0.75097973	      0.27178748	     26.40529379	     27.82442664	      0.00000000	      5.43503486	    -15.05795177	      6.75411810	    -47.87532921	     47.32933382	     24.19432153	      0.00000000	      5.43503486
      0.23333333	     -2.03878822	      5.69311612	    -28.78390866	     -1.72702078	      0.84869698	      0.31295081	    -10.60713774	     -9.01364623	     15.07204177	      9.39644848	      0.16399896	     13.86332016	     -8.25932798	      0.00000000	     20.77889149	     -7.85143550	    -20.53545782	     12.21903669	      0.21326242	      7.27608816	    -11.30259672	      0.00000000	     -0.00198309	     -0.80825346	      2.00315176	     -0.00368280	     -1.07497710	      2.12834874	     -0.00325802	     -1.96518746	      2.12834874	     -0.00226648	     -1.96518746	      1.75275779	     -0.00184150	     -1.64819046	      1.62756080	     -0.00113314	     -1.25198461	      1.50236382	     -0.01416504	     -9.14312479	     11.14092912	      0.00000000	      0.00000000	     -0.00000000	      0.00000000	      0.00000000	     -0.50691940	      0.67534184	     -0.20367349	     26.11856662	     30.10075331	      0.00000000	      5.33321645	    -14.95222120	      6.80849768	    -48.09039028	     46.80367233	     26.89594705	      0.00000000	      5.33321645
